<?xml version="1.0" encoding="UTF-8" standalone="no"?>
<!DOCTYPE svg PUBLIC "-//W3C//DTD SVG 1.1//EN"
 "http://www.w3.org/Graphics/SVG/1.1/DTD/svg11.dtd">
<!-- Generated by graphviz version 2.40.1 (20161225.0304)
 -->
<!-- Title: thermostat Pages: 1 -->
<svg width="1293pt" height="532pt"
 viewBox="0.00 0.00 1292.54 531.69" xmlns="http://www.w3.org/2000/svg" xmlns:xlink="http://www.w3.org/1999/xlink">
<g id="graph0" class="graph" transform="scale(1 1) rotate(0) translate(4 527.689)">
<title>thermostat</title>
<polygon fill="#ffffff" stroke="transparent" points="-4,4 -4,-527.689 1288.5414,-527.689 1288.5414,4 -4,4"/>
<!-- ENTRY -->
<g id="node1" class="node">
<title>ENTRY</title>
<ellipse fill="#000000" stroke="#000000" cx="1.8" cy="-209.0256" rx="1.8" ry="1.8"/>
</g>
<!-- 1 -->
<g id="node5" class="node">
<title>1</title>
<ellipse fill="none" stroke="#000000" cx="77.8725" cy="-209.0256" rx="23.5" ry="23.5"/>
<text text-anchor="middle" x="77.8725" y="-204.8256" font-family="Times,serif" font-size="14.00" fill="#000000">1</text>
</g>
<!-- ENTRY&#45;&gt;1 -->
<g id="edge37" class="edge">
<title>ENTRY&#45;&gt;1</title>
<path fill="none" stroke="#000000" d="M3.6805,-209.0256C9.4026,-209.0256 27.2366,-209.0256 43.9848,-209.0256"/>
<polygon fill="#000000" stroke="#000000" points="44.1547,-212.5257 54.1546,-209.0256 44.1546,-205.5257 44.1547,-212.5257"/>
<text text-anchor="middle" x="28.9862" y="-211.8256" font-family="Times,serif" font-size="14.00" fill="#000000">IN</text>
</g>
<!-- 10 -->
<g id="node2" class="node">
<title>10</title>
<ellipse fill="none" stroke="#000000" cx="815.0932" cy="-176.0256" rx="23.5" ry="23.5"/>
<ellipse fill="none" stroke="#000000" cx="815.0932" cy="-176.0256" rx="27.5" ry="27.5"/>
<text text-anchor="middle" x="815.0932" y="-171.8256" font-family="Times,serif" font-size="14.00" fill="#000000">10</text>
</g>
<!-- 11 -->
<g id="node3" class="node">
<title>11</title>
<ellipse fill="none" stroke="#000000" cx="703.0932" cy="-310.0256" rx="23.5" ry="23.5"/>
<ellipse fill="none" stroke="#000000" cx="703.0932" cy="-310.0256" rx="27.5" ry="27.5"/>
<text text-anchor="middle" x="703.0932" y="-305.8256" font-family="Times,serif" font-size="14.00" fill="#000000">11</text>
</g>
<!-- 11&#45;&gt;10 -->
<g id="edge29" class="edge">
<title>11&#45;&gt;10</title>
<path fill="none" stroke="#000000" d="M720.8399,-288.7929C739.7636,-266.1521 769.8508,-230.1548 790.9283,-204.9372"/>
<polygon fill="#000000" stroke="#000000" points="793.7018,-207.0764 797.4295,-197.159 788.3308,-202.5872 793.7018,-207.0764"/>
<text text-anchor="middle" x="759.0932" y="-258.8256" font-family="Times,serif" font-size="14.00" fill="#000000">34</text>
</g>
<!-- 2 -->
<g id="node6" class="node">
<title>2</title>
<ellipse fill="none" stroke="#000000" cx="174.8725" cy="-326.0256" rx="23.5" ry="23.5"/>
<text text-anchor="middle" x="174.8725" y="-321.8256" font-family="Times,serif" font-size="14.00" fill="#000000">2</text>
</g>
<!-- 11&#45;&gt;2 -->
<g id="edge28" class="edge">
<title>11&#45;&gt;2</title>
<path fill="none" stroke="#000000" d="M675.3738,-310.6346C601.032,-312.3088 391.0195,-317.3061 216.3725,-324.0256 213.8497,-324.1227 211.241,-324.2306 208.6171,-324.3446"/>
<polygon fill="#000000" stroke="#000000" points="208.4004,-320.8507 198.5708,-324.8041 208.7203,-327.8434 208.4004,-320.8507"/>
<text text-anchor="middle" x="522.9242" y="-318.8256" font-family="Times,serif" font-size="14.00" fill="#000000">10, 13 / 75:43</text>
</g>
<!-- 11&#45;&gt;2 -->
<g id="edge33" class="edge">
<title>11&#45;&gt;2</title>
<path fill="none" stroke="#000000" d="M675.8046,-306.5142C647.393,-303.0482 601.5715,-297.9907 561.8139,-296.0256 408.286,-288.4373 367.5071,-284.977 216.3725,-313.0256 213.2802,-313.5995 210.0954,-314.3309 206.9302,-315.1532"/>
<polygon fill="#000000" stroke="#000000" points="205.6626,-311.876 197.0231,-318.0086 207.6013,-318.6022 205.6626,-311.876"/>
<text text-anchor="middle" x="522.9242" y="-298.8256" font-family="Times,serif" font-size="14.00" fill="#000000">DEF</text>
</g>
<!-- 3 -->
<g id="node8" class="node">
<title>3</title>
<ellipse fill="none" stroke="#000000" cx="522.9242" cy="-366.0256" rx="23.5" ry="23.5"/>
<text text-anchor="middle" x="522.9242" y="-361.8256" font-family="Times,serif" font-size="14.00" fill="#000000">3</text>
</g>
<!-- 11&#45;&gt;3 -->
<g id="edge30" class="edge">
<title>11&#45;&gt;3</title>
<path fill="none" stroke="#000000" d="M676.3582,-316.4986C640.4526,-325.1966 580.9748,-339.6232 579.8139,-340.0256 570.9427,-343.1009 561.5746,-347.0646 553.0571,-350.9659"/>
<polygon fill="#000000" stroke="#000000" points="551.4278,-347.8645 543.8738,-355.2934 554.4118,-354.1966 551.4278,-347.8645"/>
<text text-anchor="middle" x="618.7035" y="-342.8256" font-family="Times,serif" font-size="14.00" fill="#000000">36</text>
</g>
<!-- 4 -->
<g id="node9" class="node">
<title>4</title>
<ellipse fill="none" stroke="#000000" cx="815.0932" cy="-437.0256" rx="23.5" ry="23.5"/>
<text text-anchor="middle" x="815.0932" y="-432.8256" font-family="Times,serif" font-size="14.00" fill="#000000">4</text>
</g>
<!-- 11&#45;&gt;4 -->
<g id="edge31" class="edge">
<title>11&#45;&gt;4</title>
<path fill="none" stroke="#000000" d="M721.3372,-330.713C740.8287,-352.815 771.7429,-387.8695 792.6968,-411.6297"/>
<polygon fill="#000000" stroke="#000000" points="790.1508,-414.0344 799.3901,-419.2195 795.4009,-409.4044 790.1508,-414.0344"/>
<text text-anchor="middle" x="759.0932" y="-386.8256" font-family="Times,serif" font-size="14.00" fill="#000000">92</text>
</g>
<!-- 5 -->
<g id="node10" class="node">
<title>5</title>
<ellipse fill="none" stroke="#000000" cx="815.0932" cy="-275.0256" rx="23.5" ry="23.5"/>
<text text-anchor="middle" x="815.0932" y="-270.8256" font-family="Times,serif" font-size="14.00" fill="#000000">5</text>
</g>
<!-- 11&#45;&gt;5 -->
<g id="edge32" class="edge">
<title>11&#45;&gt;5</title>
<path fill="none" stroke="#000000" d="M729.3522,-301.8197C745.201,-296.8669 765.527,-290.5151 782.4105,-285.239"/>
<polygon fill="#000000" stroke="#000000" points="783.9064,-288.4385 792.4072,-282.115 781.8184,-281.7571 783.9064,-288.4385"/>
<text text-anchor="middle" x="759.0932" y="-298.8256" font-family="Times,serif" font-size="14.00" fill="#000000">123</text>
</g>
<!-- 12 -->
<g id="node4" class="node">
<title>12</title>
<ellipse fill="none" stroke="#000000" cx="1080.8725" cy="-366.0256" rx="23.5" ry="23.5"/>
<ellipse fill="none" stroke="#000000" cx="1080.8725" cy="-366.0256" rx="27.5" ry="27.5"/>
<text text-anchor="middle" x="1080.8725" y="-361.8256" font-family="Times,serif" font-size="14.00" fill="#000000">12</text>
</g>
<!-- 12&#45;&gt;12 -->
<g id="edge35" class="edge">
<title>12&#45;&gt;12</title>
<path fill="none" stroke="#000000" d="M1065.6762,-388.9686C1063.3383,-400.8319 1068.4037,-411.5256 1080.8725,-411.5256 1089.6396,-411.5256 1094.7466,-406.2388 1096.1935,-398.9759"/>
<polygon fill="#000000" stroke="#000000" points="1099.6932,-398.9242 1096.0688,-388.9686 1092.6937,-399.0115 1099.6932,-398.9242"/>
<text text-anchor="middle" x="1080.8725" y="-414.3256" font-family="Times,serif" font-size="14.00" fill="#000000">34</text>
</g>
<!-- 6 -->
<g id="node11" class="node">
<title>6</title>
<ellipse fill="none" stroke="#000000" cx="1245.6518" cy="-316.0256" rx="23.5" ry="23.5"/>
<text text-anchor="middle" x="1245.6518" y="-311.8256" font-family="Times,serif" font-size="14.00" fill="#000000">6</text>
</g>
<!-- 12&#45;&gt;6 -->
<g id="edge34" class="edge">
<title>12&#45;&gt;6</title>
<path fill="none" stroke="#000000" d="M1105.6954,-378.6054C1131.8488,-389.9469 1173.426,-402.4007 1204.1518,-385.0256 1218.2896,-377.0309 1228.1428,-362.08 1234.6883,-348.134"/>
<polygon fill="#000000" stroke="#000000" points="1237.9926,-349.3084 1238.7034,-338.7374 1231.5556,-346.5579 1237.9926,-349.3084"/>
<text text-anchor="middle" x="1165.2621" y="-395.8256" font-family="Times,serif" font-size="14.00" fill="#000000">10, 13 / 75:43</text>
</g>
<!-- 12&#45;&gt;6 -->
<g id="edge36" class="edge">
<title>12&#45;&gt;6</title>
<path fill="none" stroke="#000000" d="M1108.3881,-365.9597C1134.1028,-364.9976 1173.0853,-361.1941 1204.1518,-348.0256 1209.7326,-345.66 1215.2195,-342.3583 1220.2833,-338.7679"/>
<polygon fill="#000000" stroke="#000000" points="1222.5535,-341.4374 1228.3478,-332.5674 1218.2868,-335.8881 1222.5535,-341.4374"/>
<text text-anchor="middle" x="1165.2621" y="-366.8256" font-family="Times,serif" font-size="14.00" fill="#000000">DEF</text>
</g>
<!-- 1&#45;&gt;2 -->
<g id="edge1" class="edge">
<title>1&#45;&gt;2</title>
<path fill="none" stroke="#000000" d="M93.0287,-227.3069C109.1874,-246.7973 134.9169,-277.8318 153.2108,-299.8977"/>
<polygon fill="#000000" stroke="#000000" points="150.7458,-302.4082 159.8226,-307.8728 156.1346,-297.9405 150.7458,-302.4082"/>
<text text-anchor="middle" x="126.3725" y="-277.8256" font-family="Times,serif" font-size="14.00" fill="#000000">34</text>
</g>
<!-- 8 -->
<g id="node7" class="node">
<title>8</title>
<ellipse fill="none" stroke="#000000" cx="174.8725" cy="-109.0256" rx="23.5" ry="23.5"/>
<text text-anchor="middle" x="174.8725" y="-104.8256" font-family="Times,serif" font-size="14.00" fill="#000000">8</text>
</g>
<!-- 1&#45;&gt;8 -->
<g id="edge2" class="edge">
<title>1&#45;&gt;8</title>
<path fill="none" stroke="#000000" d="M94.3272,-192.062C109.9347,-175.9718 133.5559,-151.62 151.1879,-133.4427"/>
<polygon fill="#000000" stroke="#000000" points="153.8867,-135.6873 158.337,-126.0725 148.8621,-130.8135 153.8867,-135.6873"/>
<text text-anchor="middle" x="126.3725" y="-167.8256" font-family="Times,serif" font-size="14.00" fill="#000000">39</text>
</g>
<!-- 2&#45;&gt;10 -->
<g id="edge4" class="edge">
<title>2&#45;&gt;10</title>
<path fill="none" stroke="#000000" d="M177.2156,-302.2528C180.998,-277.8245 190.8413,-240.7937 216.3725,-222.0256 305.667,-156.3848 659.6136,-168.0468 777.024,-173.8853"/>
<polygon fill="#000000" stroke="#000000" points="777.1473,-177.3961 787.3133,-174.4125 777.5055,-170.4052 777.1473,-177.3961"/>
<text text-anchor="middle" x="618.7035" y="-172.8256" font-family="Times,serif" font-size="14.00" fill="#000000">34</text>
</g>
<!-- 2&#45;&gt;2 -->
<g id="edge3" class="edge">
<title>2&#45;&gt;2</title>
<path fill="none" stroke="#000000" d="M170.412,-349.4902C170.1044,-359.2513 171.5912,-367.5256 174.8725,-367.5256 176.9232,-367.5256 178.2731,-364.2935 178.922,-359.4863"/>
<polygon fill="#000000" stroke="#000000" points="182.4191,-359.6255 179.3329,-349.4902 175.425,-359.3379 182.4191,-359.6255"/>
<text text-anchor="middle" x="174.8725" y="-370.3256" font-family="Times,serif" font-size="14.00" fill="#000000">10, 13 / 75:43</text>
</g>
<!-- 2&#45;&gt;2 -->
<g id="edge8" class="edge">
<title>2&#45;&gt;2</title>
<path fill="none" stroke="#000000" d="M167.1914,-348.3046C164.0152,-366.5633 166.5756,-385.5256 174.8725,-385.5256 181.6137,-385.5256 184.5679,-373.0075 183.7351,-358.5197"/>
<polygon fill="#000000" stroke="#000000" points="187.1795,-357.8362 182.5536,-348.3046 180.2258,-358.6406 187.1795,-357.8362"/>
<text text-anchor="middle" x="174.8725" y="-388.3256" font-family="Times,serif" font-size="14.00" fill="#000000">DEF</text>
</g>
<!-- 2&#45;&gt;3 -->
<g id="edge5" class="edge">
<title>2&#45;&gt;3</title>
<path fill="none" stroke="#000000" d="M198.6088,-325.0556C248.6887,-323.5382 368.568,-322.7034 466.0346,-344.0256 474.7339,-345.9287 483.8567,-348.9555 492.186,-352.1623"/>
<polygon fill="#000000" stroke="#000000" points="490.9443,-355.4356 501.5265,-355.953 493.5767,-348.9494 490.9443,-355.4356"/>
<text text-anchor="middle" x="341.2035" y="-346.8256" font-family="Times,serif" font-size="14.00" fill="#000000">36</text>
</g>
<!-- 2&#45;&gt;4 -->
<g id="edge6" class="edge">
<title>2&#45;&gt;4</title>
<path fill="none" stroke="#000000" d="M178.2031,-349.4602C183.9845,-386.3964 197.1307,-455.463 216.3725,-470.0256 372.7389,-588.3675 461.5009,-473.7763 657.5932,-472.0256 707.3769,-471.5812 722.3768,-485.8128 769.5932,-470.0256 776.7192,-467.643 783.6748,-463.7082 789.9179,-459.3705"/>
<polygon fill="#000000" stroke="#000000" points="792.0675,-462.133 797.9385,-453.3136 787.8491,-456.5469 792.0675,-462.133"/>
<text text-anchor="middle" x="618.7035" y="-480.8256" font-family="Times,serif" font-size="14.00" fill="#000000">92</text>
</g>
<!-- 2&#45;&gt;5 -->
<g id="edge7" class="edge">
<title>2&#45;&gt;5</title>
<path fill="none" stroke="#000000" d="M189.949,-307.293C197.1179,-299.7107 206.318,-291.6658 216.3725,-287.0256 432.462,-187.2996 510.9641,-241.1567 748.5932,-228.0256 757.9123,-227.5107 760.9995,-224.3841 769.5932,-228.0256 779.4749,-232.213 788.2612,-239.7133 795.4142,-247.5102"/>
<polygon fill="#000000" stroke="#000000" points="792.8707,-249.9226 802.003,-255.2941 798.2137,-245.4001 792.8707,-249.9226"/>
<text text-anchor="middle" x="618.7035" y="-233.8256" font-family="Times,serif" font-size="14.00" fill="#000000">123</text>
</g>
<!-- 8&#45;&gt;10 -->
<g id="edge23" class="edge">
<title>8&#45;&gt;10</title>
<path fill="none" stroke="#000000" d="M196.4814,-118.2686C202.782,-120.5687 209.754,-122.7422 216.3725,-124.0256 409.0109,-161.3817 462.6646,-117.4891 657.5932,-140.0256 707.9865,-145.8518 720.3942,-149.6605 769.5932,-162.0256 772.6215,-162.7867 775.747,-163.6281 778.8751,-164.5095"/>
<polygon fill="#000000" stroke="#000000" points="778.178,-167.9525 788.759,-167.4117 780.1501,-161.2361 778.178,-167.9525"/>
<text text-anchor="middle" x="618.7035" y="-142.8256" font-family="Times,serif" font-size="14.00" fill="#000000">39</text>
</g>
<!-- 8&#45;&gt;8 -->
<g id="edge22" class="edge">
<title>8&#45;&gt;8</title>
<path fill="none" stroke="#000000" d="M170.412,-132.4902C170.1044,-142.2513 171.5912,-150.5256 174.8725,-150.5256 176.9232,-150.5256 178.2731,-147.2935 178.922,-142.4863"/>
<polygon fill="#000000" stroke="#000000" points="182.4191,-142.6255 179.3329,-132.4902 175.425,-142.3379 182.4191,-142.6255"/>
<text text-anchor="middle" x="174.8725" y="-153.3256" font-family="Times,serif" font-size="14.00" fill="#000000">10, 13 / 75:43</text>
</g>
<!-- 8&#45;&gt;8 -->
<g id="edge25" class="edge">
<title>8&#45;&gt;8</title>
<path fill="none" stroke="#000000" d="M167.1914,-131.3046C164.0152,-149.5633 166.5756,-168.5256 174.8725,-168.5256 181.6137,-168.5256 184.5679,-156.0075 183.7351,-141.5197"/>
<polygon fill="#000000" stroke="#000000" points="187.1795,-140.8362 182.5536,-131.3046 180.2258,-141.6406 187.1795,-140.8362"/>
<text text-anchor="middle" x="174.8725" y="-171.3256" font-family="Times,serif" font-size="14.00" fill="#000000">DEF</text>
</g>
<!-- 9 -->
<g id="node13" class="node">
<title>9</title>
<ellipse fill="none" stroke="#000000" cx="522.9242" cy="-72.0256" rx="23.5" ry="23.5"/>
<text text-anchor="middle" x="522.9242" y="-67.8256" font-family="Times,serif" font-size="14.00" fill="#000000">9</text>
</g>
<!-- 8&#45;&gt;9 -->
<g id="edge24" class="edge">
<title>8&#45;&gt;9</title>
<path fill="none" stroke="#000000" d="M190.3854,-90.8497C197.5056,-83.8758 206.5492,-76.7109 216.3725,-73.0256 310.1929,-37.8285 431.8288,-53.8636 489.6157,-64.8099"/>
<polygon fill="#000000" stroke="#000000" points="489.1542,-68.2861 499.6416,-66.7811 490.5047,-61.4176 489.1542,-68.2861"/>
<text text-anchor="middle" x="341.2035" y="-75.8256" font-family="Times,serif" font-size="14.00" fill="#000000">92</text>
</g>
<!-- 3&#45;&gt;11 -->
<g id="edge10" class="edge">
<title>3&#45;&gt;11</title>
<path fill="none" stroke="#000000" d="M546.5801,-369.6703C574.5141,-372.8673 621.7098,-374.7321 657.5932,-358.0256 666.3078,-353.9683 674.1887,-347.4313 680.8491,-340.4703"/>
<polygon fill="#000000" stroke="#000000" points="683.5842,-342.6606 687.579,-332.8478 678.3367,-338.0276 683.5842,-342.6606"/>
<text text-anchor="middle" x="618.7035" y="-373.8256" font-family="Times,serif" font-size="14.00" fill="#000000">34</text>
</g>
<!-- 3&#45;&gt;2 -->
<g id="edge9" class="edge">
<title>3&#45;&gt;2</title>
<path fill="none" stroke="#000000" d="M499.7378,-370.1634C447.3712,-378.5084 316.7024,-393.6826 216.3725,-358.0256 210.551,-355.9567 204.898,-352.7338 199.7335,-349.1147"/>
<polygon fill="#000000" stroke="#000000" points="201.6091,-346.1403 191.56,-342.7837 197.3225,-351.6744 201.6091,-346.1403"/>
<text text-anchor="middle" x="341.2035" y="-382.8256" font-family="Times,serif" font-size="14.00" fill="#000000">&#45;128..33, 35..54, 56..64, 91..94, 96, 124..127</text>
</g>
<!-- 4&#45;&gt;2 -->
<g id="edge11" class="edge">
<title>4&#45;&gt;2</title>
<path fill="none" stroke="#000000" d="M791.6143,-438.3582C686.7543,-444.1067 264.3175,-465.0376 216.3725,-432.0256 203.8324,-423.3913 191.3541,-386.7525 183.4058,-358.9469"/>
<polygon fill="#000000" stroke="#000000" points="186.7391,-357.8694 180.6907,-349.1706 179.9943,-359.7426 186.7391,-357.8694"/>
<text text-anchor="middle" x="618.7035" y="-449.8256" font-family="Times,serif" font-size="14.00" fill="#000000">10, 13 / 75:43</text>
</g>
<!-- 4&#45;&gt;2 -->
<g id="edge12" class="edge">
<title>4&#45;&gt;2</title>
<path fill="none" stroke="#000000" d="M791.6145,-435.3391C760.8406,-433.1393 705.1816,-429.1974 657.5932,-426.0256 559.5644,-419.492 299.8385,-449.8499 216.3725,-398.0256 201.7931,-388.9733 191.8026,-372.7894 185.2843,-358.0554"/>
<polygon fill="#000000" stroke="#000000" points="188.4832,-356.6299 181.4888,-348.6719 181.994,-359.2547 188.4832,-356.6299"/>
<text text-anchor="middle" x="618.7035" y="-428.8256" font-family="Times,serif" font-size="14.00" fill="#000000">DEF</text>
</g>
<!-- 5&#45;&gt;12 -->
<g id="edge14" class="edge">
<title>5&#45;&gt;12</title>
<path fill="none" stroke="#000000" d="M831.2126,-292.492C845.8091,-307.2092 868.6396,-327.6362 892.5932,-339.0256 940.9455,-362.0161 1003.5732,-366.7152 1042.9991,-367.0704"/>
<polygon fill="#000000" stroke="#000000" points="1043.2297,-370.5704 1053.2293,-367.0693 1043.2289,-363.5704 1043.2297,-370.5704"/>
<text text-anchor="middle" x="916.0932" y="-357.8256" font-family="Times,serif" font-size="14.00" fill="#000000">34</text>
</g>
<!-- 5&#45;&gt;6 -->
<g id="edge13" class="edge">
<title>5&#45;&gt;6</title>
<path fill="none" stroke="#000000" d="M838.8333,-274.2544C854.1705,-273.7954 874.5591,-273.2583 892.5932,-273.0256 913.4803,-272.7562 918.7494,-271.6528 939.5932,-273.0256 1057.9429,-280.8203 1087.0792,-289.0144 1204.1518,-308.0256 1206.8428,-308.4626 1209.627,-308.9413 1212.4205,-309.4404"/>
<polygon fill="#000000" stroke="#000000" points="1211.9577,-312.9142 1222.4287,-311.2988 1213.2358,-306.0318 1211.9577,-312.9142"/>
<text text-anchor="middle" x="996.4828" y="-284.8256" font-family="Times,serif" font-size="14.00" fill="#000000">10, 13 / 75:43</text>
</g>
<!-- 5&#45;&gt;6 -->
<g id="edge16" class="edge">
<title>5&#45;&gt;6</title>
<path fill="none" stroke="#000000" d="M838.7079,-271.1187C866.9038,-266.6685 915.5342,-259.6715 957.5932,-257.0256 1068.055,-250.0767 1100.739,-252.5808 1204.1518,-292.0256 1208.4677,-293.6719 1212.8628,-295.7323 1217.0999,-297.95"/>
<polygon fill="#000000" stroke="#000000" points="1215.5967,-301.1197 1226.0311,-302.9563 1219.0194,-295.0136 1215.5967,-301.1197"/>
<text text-anchor="middle" x="996.4828" y="-259.8256" font-family="Times,serif" font-size="14.00" fill="#000000">DEF</text>
</g>
<!-- 7 -->
<g id="node12" class="node">
<title>7</title>
<ellipse fill="none" stroke="#000000" cx="916.0932" cy="-306.0256" rx="23.5" ry="23.5"/>
<text text-anchor="middle" x="916.0932" y="-301.8256" font-family="Times,serif" font-size="14.00" fill="#000000">7</text>
</g>
<!-- 5&#45;&gt;7 -->
<g id="edge15" class="edge">
<title>5&#45;&gt;7</title>
<path fill="none" stroke="#000000" d="M837.7595,-281.9826C851.2746,-286.1308 868.6575,-291.4662 883.6134,-296.0566"/>
<polygon fill="#000000" stroke="#000000" points="882.9156,-299.5035 893.5024,-299.0918 884.9696,-292.8116 882.9156,-299.5035"/>
<text text-anchor="middle" x="867.5932" y="-295.8256" font-family="Times,serif" font-size="14.00" fill="#000000">36</text>
</g>
<!-- 6&#45;&gt;12 -->
<g id="edge18" class="edge">
<title>6&#45;&gt;12</title>
<path fill="none" stroke="#000000" d="M1221.9529,-316.4167C1197.2634,-317.5446 1157.8623,-321.3987 1126.3725,-334.0256 1120.8599,-336.2361 1115.37,-339.2313 1110.2101,-342.5066"/>
<polygon fill="#000000" stroke="#000000" points="1108.1713,-339.6606 1101.892,-348.1942 1112.1224,-345.439 1108.1713,-339.6606"/>
<text text-anchor="middle" x="1165.2621" y="-336.8256" font-family="Times,serif" font-size="14.00" fill="#000000">34</text>
</g>
<!-- 6&#45;&gt;6 -->
<g id="edge17" class="edge">
<title>6&#45;&gt;6</title>
<path fill="none" stroke="#000000" d="M1238.2689,-338.65C1237.5658,-348.7717 1240.0268,-357.5256 1245.6518,-357.5256 1249.2553,-357.5256 1251.5603,-353.933 1252.5667,-348.6897"/>
<polygon fill="#000000" stroke="#000000" points="1256.0652,-348.8021 1253.0346,-338.65 1249.0728,-348.4762 1256.0652,-348.8021"/>
<text text-anchor="middle" x="1245.6518" y="-360.3256" font-family="Times,serif" font-size="14.00" fill="#000000">10, 13 / 75:43</text>
</g>
<!-- 6&#45;&gt;6 -->
<g id="edge19" class="edge">
<title>6&#45;&gt;6</title>
<path fill="none" stroke="#000000" d="M1233.4212,-336.451C1227.278,-355.2559 1231.3549,-375.5256 1245.6518,-375.5256 1257.3797,-375.5256 1262.2304,-361.8859 1260.2039,-346.6038"/>
<polygon fill="#000000" stroke="#000000" points="1263.5234,-345.4191 1257.8823,-336.451 1256.6996,-346.9796 1263.5234,-345.4191"/>
<text text-anchor="middle" x="1245.6518" y="-378.3256" font-family="Times,serif" font-size="14.00" fill="#000000">DEF</text>
</g>
<!-- 7&#45;&gt;12 -->
<g id="edge20" class="edge">
<title>7&#45;&gt;12</title>
<path fill="none" stroke="#000000" d="M939.6269,-310.2407C964.1818,-315.1167 1003.4745,-324.2799 1035.3725,-338.0256 1039.9243,-339.9871 1044.5583,-342.3498 1049.042,-344.8606"/>
<polygon fill="#000000" stroke="#000000" points="1047.5716,-348.0575 1057.9594,-350.1416 1051.1385,-342.0344 1047.5716,-348.0575"/>
<text text-anchor="middle" x="996.4828" y="-340.8256" font-family="Times,serif" font-size="14.00" fill="#000000">34</text>
</g>
<!-- 7&#45;&gt;6 -->
<g id="edge21" class="edge">
<title>7&#45;&gt;6</title>
<path fill="none" stroke="#000000" d="M939.6222,-306.5166C988.7696,-307.5779 1105.9147,-310.2947 1204.1518,-314.0256 1206.6746,-314.1214 1209.2833,-314.2284 1211.9072,-314.3418"/>
<polygon fill="#000000" stroke="#000000" points="1211.8045,-317.8406 1221.9536,-314.8 1212.1235,-310.8479 1211.8045,-317.8406"/>
<text text-anchor="middle" x="1080.8725" y="-313.8256" font-family="Times,serif" font-size="14.00" fill="#000000">DEF</text>
</g>
<!-- 9&#45;&gt;8 -->
<g id="edge26" class="edge">
<title>9&#45;&gt;8</title>
<path fill="none" stroke="#000000" d="M505.3909,-56.3347C494.8057,-47.9377 480.5833,-38.4377 466.0346,-34.0256 359.8491,-1.8234 311.9586,22.327 216.3725,-34.0256 200.6608,-43.2884 190.4811,-60.8727 184.1377,-76.6874"/>
<polygon fill="#000000" stroke="#000000" points="180.8011,-75.6214 180.6686,-86.2154 187.3787,-78.0163 180.8011,-75.6214"/>
<text text-anchor="middle" x="341.2035" y="-36.8256" font-family="Times,serif" font-size="14.00" fill="#000000">10, 13 / 75:43</text>
</g>
<!-- 9&#45;&gt;8 -->
<g id="edge27" class="edge">
<title>9&#45;&gt;8</title>
<path fill="none" stroke="#000000" d="M500.4305,-78.9688C490.0549,-81.9088 477.5175,-85.0946 466.0346,-87.0256 373.7072,-102.5521 263.0554,-107.1262 208.5725,-108.4697"/>
<polygon fill="#000000" stroke="#000000" points="208.3656,-104.9734 198.4469,-108.6977 208.5232,-111.9716 208.3656,-104.9734"/>
<text text-anchor="middle" x="341.2035" y="-111.8256" font-family="Times,serif" font-size="14.00" fill="#000000">DEF</text>
</g>
</g>
</svg>
